<svg xmlns="http://www.w3.org/2000/svg" viewBox="0 0 223 304"><defs><style>.cls-1{fill:#fff;}.cls-2,.cls-5{fill:#999;}.cls-3{font-size:46.36px;fill:gray;}.cls-3,.cls-5{font-family:MyriadPro-Regular, Myriad Pro;}.cls-4,.cls-6{fill:none;stroke:#999;stroke-miterlimit:10;}.cls-4{stroke-width:2px;}.cls-5{font-size:10px;}</style></defs><title>Asset 1</title><g id="Layer_2" data-name="Layer 2"><g id="Layer_1-2" data-name="Layer 1"><rect class="cls-1" x="1" y="1" width="221" height="302" rx="19.05" ry="19.05"/><path class="cls-2" d="M203,2a18.07,18.07,0,0,1,18,18V284a18.07,18.07,0,0,1-18,18H20A18.07,18.07,0,0,1,2,284V20A18.07,18.07,0,0,1,20,2H203m0-2H20A20,20,0,0,0,0,20V284a20,20,0,0,0,20,20H203a20,20,0,0,0,20-20V20A20,20,0,0,0,203,0Z"/><rect class="cls-2" x="25.5" y="25.5" width="170" height="26"/><path class="cls-2" d="M193,28V49H28V28H193m5-5H23V54H198V23Z"/><text class="cls-3" transform="translate(29.42 190.41) scale(1.08 1)">A</text><rect class="cls-4" x="23" y="70" width="175" height="62"/><line class="cls-4" x1="80" y1="164" x2="198" y2="164"/><line class="cls-4" x1="80" y1="177" x2="198" y2="177"/><line class="cls-4" x1="80" y1="190" x2="198" y2="190"/><path class="cls-1" d="M90,255.5a10.5,10.5,0,0,1,0-21h41a10.5,10.5,0,0,1,0,21Z"/><path class="cls-2" d="M131,235a10,10,0,0,1,0,20H90a10,10,0,0,1,0-20h41m0-1H90a11,11,0,0,0,0,22h41a11,11,0,0,0,0-22Z"/><text class="cls-5" transform="translate(102.92 248.52)">Click</text><circle class="cls-1" cx="162" cy="283" r="3"/><path class="cls-2" d="M162,281a2,2,0,1,1-2,2,2,2,0,0,1,2-2m0-2a4,4,0,1,0,4,4,4,4,0,0,0-4-4Z"/><circle class="cls-1" cx="182" cy="283" r="3"/><path class="cls-2" d="M182,281a2,2,0,1,1-2,2,2,2,0,0,1,2-2m0-2a4,4,0,1,0,4,4,4,4,0,0,0-4-4Z"/><circle class="cls-1" cx="198" cy="283" r="3"/><path class="cls-2" d="M198,281a2,2,0,1,1-2,2,2,2,0,0,1,2-2m0-2a4,4,0,1,0,4,4,4,4,0,0,0-4-4Z"/><line class="cls-6" x1="20" y1="283" x2="80" y2="283"/></g></g></svg>